# This file uses centimeters as units for non-parametric coordinates.

mtllib arrow.mtl
g default
v 3.694118 -0.144145 0.144145
v 3.694118 0.144145 0.144145
v 4.591111 0.000000 0.000000
v 3.694118 0.144145 -0.144145
v 3.694118 -0.144145 -0.144145
v 3.694118 -0.028829 -0.028829
v 3.694118 -0.028829 0.028829
v 3.694118 0.028829 0.028829
v 3.694118 0.028829 -0.028829
v 1.325408 -0.028829 -0.028829
v 1.325408 -0.028829 0.028829
v 1.325408 0.028829 0.028829
v 1.325408 0.028829 -0.028829
vt 0.375000 0.000000
vt 0.375000 0.250000
vt 0.718750 0.296875
vt 0.375000 0.500000
vt 0.375000 0.750000
vt 0.375000 1.000000
vt 0.125000 0.000000
vt 0.125000 0.250000
vt 0.125000 0.000000
vt 0.375000 0.000000
vt 0.375000 0.250000
vt 0.125000 0.250000
vt 0.125000 0.000000
vt 0.375000 0.000000
vt 0.375000 0.250000
vt 0.125000 0.250000
vn 0.158662 0.000000 0.987333
vn 0.158662 0.000000 0.987333
vn 0.158662 0.000000 0.987333
vn 0.158662 0.987333 -0.000000
vn 0.158662 0.987333 -0.000000
vn 0.158662 0.987333 -0.000000
vn 0.158662 0.000000 -0.987333
vn 0.158662 0.000000 -0.987333
vn 0.158662 0.000000 -0.987333
vn 0.158662 -0.987333 0.000000
vn 0.158662 -0.987333 0.000000
vn 0.158662 -0.987333 0.000000
vn -1.000000 0.000000 0.000000
vn -1.000000 0.000000 0.000000
vn -1.000000 0.000000 0.000000
vn -1.000000 0.000000 0.000000
vn -1.000000 0.000000 0.000000
vn -1.000000 0.000000 0.000000
vn -1.000000 0.000000 0.000000
vn -1.000000 0.000000 0.000000
vn -1.000000 -0.000000 0.000000
vn -1.000000 -0.000000 0.000000
vn -1.000000 -0.000000 0.000000
vn -1.000000 -0.000000 0.000000
vn -0.000000 -1.000000 0.000000
vn -0.000000 -1.000000 0.000000
vn -0.000000 -1.000000 0.000000
vn -0.000000 -1.000000 0.000000
vn -0.000000 -0.000000 1.000000
vn -0.000000 -0.000000 1.000000
vn -0.000000 -0.000000 1.000000
vn -0.000000 -0.000000 1.000000
vn -0.000000 1.000000 -0.000000
vn -0.000000 1.000000 -0.000000
vn -0.000000 1.000000 -0.000000
vn -0.000000 1.000000 -0.000000
vn 0.000000 -0.000000 -1.000000
vn 0.000000 -0.000000 -1.000000
vn 0.000000 -0.000000 -1.000000
vn 0.000000 -0.000000 -1.000000
s off
g pCube1 pCube2 pCube3
usemtl initialShadingGroup
f 1/1/1 3/3/2 2/2/3
f 2/2/4 3/3/5 4/4/6
f 4/4/7 3/3/8 5/5/9
f 5/5/10 3/3/11 1/6/12
f 10/13/13 11/14/14 12/15/15 13/16/16
s 1
f 5/7/17 1/1/18 7/10/19 6/9/20
f 1/1/18 2/2/21 8/11/22 7/10/19
f 2/2/21 4/8/23 9/12/24 8/11/22
f 4/8/23 5/7/17 6/9/20 9/12/24
s off
f 6/9/25 7/10/26 11/14/27 10/13/28
f 7/10/29 8/11/30 12/15/31 11/14/32
f 8/11/33 9/12/34 13/16/35 12/15/36
f 9/12/37 6/9/38 10/13/39 13/16/40
g default
v 0.144145 3.694118 0.144145
v -0.144145 3.694118 0.144145
v 0.000000 4.591111 0.000000
v -0.144145 3.694118 -0.144145
v 0.144145 3.694118 -0.144145
v 0.028829 3.694118 -0.028829
v 0.028829 3.694118 0.028829
v -0.028829 3.694118 0.028829
v -0.028829 3.694118 -0.028829
v 0.028829 1.325408 -0.028829
v 0.028829 1.325408 0.028829
v -0.028829 1.325408 0.028829
v -0.028829 1.325408 -0.028829
vt 0.375000 0.000000
vt 0.375000 0.250000
vt 0.718750 0.296875
vt 0.375000 0.500000
vt 0.375000 0.750000
vt 0.375000 1.000000
vt 0.125000 0.000000
vt 0.125000 0.250000
vt 0.125000 0.000000
vt 0.375000 0.000000
vt 0.375000 0.250000
vt 0.125000 0.250000
vt 0.125000 0.000000
vt 0.375000 0.000000
vt 0.375000 0.250000
vt 0.125000 0.250000
vn -0.000000 0.158662 0.987333
vn -0.000000 0.158662 0.987333
vn -0.000000 0.158662 0.987333
vn -0.987333 0.158662 -0.000000
vn -0.987333 0.158662 -0.000000
vn -0.987333 0.158662 -0.000000
vn 0.000000 0.158662 -0.987333
vn 0.000000 0.158662 -0.987333
vn 0.000000 0.158662 -0.987333
vn 0.987333 0.158662 0.000000
vn 0.987333 0.158662 0.000000
vn 0.987333 0.158662 0.000000
vn -0.000000 -1.000000 0.000000
vn -0.000000 -1.000000 0.000000
vn -0.000000 -1.000000 0.000000
vn -0.000000 -1.000000 0.000000
vn -0.000000 -1.000000 0.000000
vn -0.000000 -1.000000 0.000000
vn -0.000000 -1.000000 0.000000
vn -0.000000 -1.000000 0.000000
vn 0.000000 -1.000000 0.000000
vn 0.000000 -1.000000 0.000000
vn 0.000000 -1.000000 0.000000
vn 0.000000 -1.000000 0.000000
vn 1.000000 -0.000000 0.000000
vn 1.000000 -0.000000 0.000000
vn 1.000000 -0.000000 0.000000
vn 1.000000 -0.000000 0.000000
vn 0.000000 -0.000000 1.000000
vn 0.000000 -0.000000 1.000000
vn 0.000000 -0.000000 1.000000
vn 0.000000 -0.000000 1.000000
vn -1.000000 -0.000000 -0.000000
vn -1.000000 -0.000000 -0.000000
vn -1.000000 -0.000000 -0.000000
vn -1.000000 -0.000000 -0.000000
vn 0.000000 0.000000 -1.000000
vn 0.000000 0.000000 -1.000000
vn 0.000000 0.000000 -1.000000
vn 0.000000 0.000000 -1.000000
s off
g pCube1 pCube2 pCube3
usemtl initialShadingGroup
f 14/17/41 16/19/42 15/18/43
f 15/18/44 16/19/45 17/20/46
f 17/20/47 16/19/48 18/21/49
f 18/21/50 16/19/51 14/22/52
f 23/29/53 24/30/54 25/31/55 26/32/56
s 1
f 18/23/57 14/17/58 20/26/59 19/25/60
f 14/17/58 15/18/61 21/27/62 20/26/59
f 15/18/61 17/24/63 22/28/64 21/27/62
f 17/24/63 18/23/57 19/25/60 22/28/64
s off
f 19/25/65 20/26/66 24/30/67 23/29/68
f 20/26/69 21/27/70 25/31/71 24/30/72
f 21/27/73 22/28/74 26/32/75 25/31/76
f 22/28/77 19/25/78 23/29/79 26/32/80
g default
v -0.144145 -0.144145 3.694118
v -0.144145 0.144145 3.694118
v 0.000000 0.000000 4.591111
v 0.144145 0.144145 3.694118
v 0.144145 -0.144145 3.694118
v 0.028829 -0.028829 3.694118
v -0.028829 -0.028829 3.694118
v -0.028829 0.028829 3.694118
v 0.028829 0.028829 3.694118
v 0.028829 -0.028829 1.325408
v -0.028829 -0.028829 1.325408
v -0.028829 0.028829 1.325408
v 0.028829 0.028829 1.325408
vt 0.375000 0.000000
vt 0.375000 0.250000
vt 0.718750 0.296875
vt 0.375000 0.500000
vt 0.375000 0.750000
vt 0.375000 1.000000
vt 0.125000 0.000000
vt 0.125000 0.250000
vt 0.125000 0.000000
vt 0.375000 0.000000
vt 0.375000 0.250000
vt 0.125000 0.250000
vt 0.125000 0.000000
vt 0.375000 0.000000
vt 0.375000 0.250000
vt 0.125000 0.250000
vn -0.987333 0.000000 0.158662
vn -0.987333 0.000000 0.158662
vn -0.987333 0.000000 0.158662
vn 0.000000 0.987333 0.158662
vn 0.000000 0.987333 0.158662
vn 0.000000 0.987333 0.158662
vn 0.987333 0.000000 0.158662
vn 0.987333 0.000000 0.158662
vn 0.987333 0.000000 0.158662
vn 0.000000 -0.987333 0.158662
vn 0.000000 -0.987333 0.158662
vn 0.000000 -0.987333 0.158662
vn -0.000000 0.000000 -1.000000
vn -0.000000 0.000000 -1.000000
vn -0.000000 0.000000 -1.000000
vn -0.000000 0.000000 -1.000000
vn -0.000000 0.000000 -1.000000
vn -0.000000 0.000000 -1.000000
vn -0.000000 0.000000 -1.000000
vn -0.000000 0.000000 -1.000000
vn -0.000000 -0.000000 -1.000000
vn -0.000000 -0.000000 -1.000000
vn -0.000000 -0.000000 -1.000000
vn -0.000000 -0.000000 -1.000000
vn -0.000000 -1.000000 -0.000000
vn -0.000000 -1.000000 -0.000000
vn -0.000000 -1.000000 -0.000000
vn -0.000000 -1.000000 -0.000000
vn -1.000000 -0.000000 -0.000000
vn -1.000000 -0.000000 -0.000000
vn -1.000000 -0.000000 -0.000000
vn -1.000000 -0.000000 -0.000000
vn 0.000000 1.000000 -0.000000
vn 0.000000 1.000000 -0.000000
vn 0.000000 1.000000 -0.000000
vn 0.000000 1.000000 -0.000000
vn 1.000000 -0.000000 0.000000
vn 1.000000 -0.000000 0.000000
vn 1.000000 -0.000000 0.000000
vn 1.000000 -0.000000 0.000000
s off
g pCube1 pCube2 pCube3
usemtl initialShadingGroup
f 27/33/81 29/35/82 28/34/83
f 28/34/84 29/35/85 30/36/86
f 30/36/87 29/35/88 31/37/89
f 31/37/90 29/35/91 27/38/92
f 36/45/93 37/46/94 38/47/95 39/48/96
s 1
f 31/39/97 27/33/98 33/42/99 32/41/100
f 27/33/98 28/34/101 34/43/102 33/42/99
f 28/34/101 30/40/103 35/44/104 34/43/102
f 30/40/103 31/39/97 32/41/100 35/44/104
s off
f 32/41/105 33/42/106 37/46/107 36/45/108
f 33/42/109 34/43/110 38/47/111 37/46/112
f 34/43/113 35/44/114 39/48/115 38/47/116
f 35/44/117 32/41/118 36/45/119 39/48/120
